<?xml version="1.0" standalone="no"?>
<!DOCTYPE svg PUBLIC "-//W3C//DTD SVG 20010904//EN"
 "http://www.w3.org/TR/2001/REC-SVG-20010904/DTD/svg10.dtd">
<svg version="1.0" xmlns="http://www.w3.org/2000/svg"
 width="1280.000000pt" height="887.000000pt" viewBox="0 0 1280.000000 887.000000"
 preserveAspectRatio="xMidYMid meet">
<metadata>
Created by potrace 1.15, written by Peter Selinger 2001-2017
</metadata>
<g transform="translate(0.000000,887.000000) scale(0.100000,-0.100000)"
fill="#000000" stroke="none">
<path d="M3257 8849 c-7 -13 -32 -53 -54 -89 -66 -107 -83 -146 -106 -248 -20
-84 -26 -97 -45 -100 -12 -2 -36 -17 -53 -35 -28 -28 -31 -35 -26 -76 l5 -46
-71 -66 c-58 -53 -85 -89 -136 -180 -155 -277 -1213 -2106 -1274 -2204 -69
-110 -102 -187 -118 -274 -13 -67 -17 -75 -44 -87 -54 -22 -77 -56 -74 -107 3
-44 1 -47 -50 -89 -50 -41 -85 -90 -175 -246 -20 -35 -36 -74 -36 -87 0 -20
36 -51 198 -173 563 -422 837 -599 1234 -798 322 -161 862 -394 914 -394 31 0
38 6 78 68 79 122 99 172 130 322 4 18 16 30 41 39 48 17 67 49 64 105 -3 45
-2 47 76 123 62 61 92 100 134 178 52 96 298 527 327 571 l13 22 41 -20 c67
-34 122 -11 185 75 l20 28 1105 -684 c2545 -1574 2642 -1633 2915 -1779 149
-80 934 -502 1745 -938 811 -436 1584 -851 1718 -923 237 -127 242 -131 227
-151 -24 -33 -45 -83 -45 -109 0 -31 39 -88 70 -104 35 -18 87 -16 122 4 35
20 200 264 298 438 97 174 183 356 187 400 8 77 -61 142 -139 132 -47 -6 -73
-28 -102 -84 l-21 -43 -1915 1183 c-1053 650 -1944 1199 -1980 1219 -50 28
-2317 1246 -3150 1693 -375 201 -541 290 -607 327 l-73 39 20 39 c12 24 20 59
20 90 0 43 -4 56 -28 78 -15 15 -36 32 -45 37 -15 9 2 43 151 300 92 160 193
332 225 383 63 105 89 169 107 260 11 56 16 64 44 76 52 22 71 52 70 106 -2
48 -1 50 57 100 46 40 77 82 144 196 56 93 83 149 78 158 -162 273 -1935 1309
-2332 1362 -44 6 -50 4 -64 -17z"/>
<path d="M1390 1494 c-418 -21 -735 -58 -956 -109 -170 -40 -229 -70 -285
-147 -31 -43 -99 -239 -127 -366 -21 -98 -23 -358 -3 -452 19 -88 65 -184 101
-210 54 -38 563 -128 969 -170 488 -51 1104 -49 1556 5 287 34 522 68 759 110
130 23 197 40 215 53 81 60 121 200 121 428 0 133 -16 247 -54 369 -64 209
-106 281 -189 323 -119 59 -413 111 -832 148 -168 14 -1089 28 -1275 18z"/>
</g>
</svg>
